<?xml version="1.0" encoding="UTF-8" standalone="no"?>
<svg
   xmlns:dc="http://purl.org/dc/elements/1.1/"
   xmlns:cc="http://creativecommons.org/ns#"
   xmlns:rdf="http://www.w3.org/1999/02/22-rdf-syntax-ns#"
   xmlns:svg="http://www.w3.org/2000/svg"
   xmlns="http://www.w3.org/2000/svg"
   xmlns:xlink="http://www.w3.org/1999/xlink"
   version="1.1"
   id="svg2"
   viewBox="0 0 251.68064 262.15736"
   height="73.986633mm"
   width="71.029869mm">
  <defs
     id="defs4" />
  <metadata
     id="metadata7">
    <rdf:RDF>
      <cc:Work
         rdf:about="">
        <dc:format>image/svg+xml</dc:format>
        <dc:type
           rdf:resource="http://purl.org/dc/dcmitype/StillImage" />
        <dc:title></dc:title>
      </cc:Work>
    </rdf:RDF>
  </metadata>
  <g
     transform="translate(-246.48982,-317.75402)"
     style="display:none;opacity:0.52899996"
     id="layer1">
    <image
       transform="matrix(0,1,-1,0,0,0)"
       width="887.61908"
       height="665.71429"
       preserveAspectRatio="none"
       xlink:href="file:///Users/poppijanne/Pictures/Gimp/RAndom/keke.jpg"
       id="image4214"
       x="79.028908"
       y="-712.85718" />
  </g>
  <g
     transform="translate(-246.48982,-317.75402)"
     style="display:inline"
     id="layer4" />
  <g
     transform="translate(-246.48982,-317.75402)"
     style="display:inline"
     id="layer2">
    <path
       id="path4238"
       d="m 341.31434,319.75563 c -4.73647,-0.0774 -9.49481,2.68998 -10.83539,7.40833 -2.69202,13.28017 -3.79891,24.97003 -5.97647,39.99972 -7.00509,0.3552 -13.44155,1.10313 -18.21453,2.1326 -7.05313,57.71306 -13.10125,98.00653 -20.72814,155.67134 4.82514,0.41648 18.24669,0.27495 22.32126,0.62582 -0.40605,5.7522 -1.33166,12.49399 -1.64504,19.16608 -19.04617,0.40199 -50.46774,1.15602 -56.93659,15.65993 -3.81101,8.54474 5.96742,17.38209 17.57594,17.46012 18.81845,0.12652 30.74768,-0.16334 51.85464,-0.19437 6.24787,-0.009 11.20933,-2.12735 11.67698,-10.31385 0.88674,-15.95216 1.49385,-23.91167 3.03118,-41.13068 4.73782,0.27593 12.51413,0.14246 18.15302,0.36373 1.90052,-11.03811 0.96237,-16.97462 4.68817,-29.15198 1.51986,0 9.75113,0.0432 15.33863,0.0829 l 0,0.006 c 0.19218,-10e-4 0.27811,-10e-4 0.47235,-0.003 0.19425,10e-4 0.28018,10e-4 0.47236,0.003 l 0,-0.006 c 5.58749,-0.0395 17.75009,-0.0829 19.26993,-0.0829 2.2284,13.97552 1.00045,18.48628 2.76543,28.88865 5.63889,-0.22122 11.59286,0.36184 16.33068,0.0858 1.16492,17.62489 1.77201,27.87543 2.84495,41.31688 1.21248,4.8348 3.94045,9.49364 10.18735,9.38282 19.2449,-0.34139 35.51754,1.47004 53.40496,0.22632 11.58082,-0.80522 22.74129,-10.61303 17.47461,-18.34597 -9.94427,-14.60097 -36.58832,-13.62345 -56.33732,-14.61983 -0.6858,-6.11347 -1.7976,-13.04146 -2.20367,-18.79367 4.07457,-0.35086 17.49613,-0.20934 22.32126,-0.62582 -7.62689,-57.66481 -11.56831,-98.74827 -18.62145,-156.46133 -4.24631,0.28719 -11.60446,-1.11908 -18.21454,-1.34261 -2.17756,-15.02969 -3.54777,-26.45621 -5.97646,-39.99971 -1.34058,-4.71835 -6.09892,-7.48585 -10.8354,-7.40834 -1.09304,0.0179 -2.18625,0.18696 -3.23449,0.51884 -5.33386,1.68878 -4.16115,8.44599 -4.04672,10.47064 0.61748,10.92992 1.65568,24.67984 2.16882,35.70449 -1.79245,-0.0895 -7.27778,-0.0647 -7.85438,-0.0454 -0.009,1.57464 0.14688,2.95351 0.33699,5.81703 -1.16353,0 -8.44881,-0.14067 -9.59559,-0.25687 -0.18801,-2.00645 0.31064,-2.49415 -0.0243,-5.47449 -3.49335,-0.038 -3.92823,-0.48591 -9.10733,-0.52955 l 0,-0.0133 c -0.16143,9.5e-4 -0.31633,0.004 -0.47812,0.006 -0.15782,-10e-4 -0.30909,-0.004 -0.46658,-0.006 l 0,0.0133 c -5.179,0.0437 -5.61405,0.18129 -9.10733,0.2193 -0.13744,2.94744 -0.0148,3.54841 -0.10408,5.81765 -1.14679,0.11621 -9.01061,0.22397 -10.17415,0.22397 0.1901,-2.86352 0.21464,-4.24239 0.20532,-5.81703 -0.5766,-0.0193 -5.27191,-0.0441 -7.06437,0.0454 0.51315,-11.02465 1.55133,-24.77457 2.16881,-35.70449 0.11443,-2.02465 1.28714,-8.78186 -4.04672,-10.47064 -1.04824,-0.33188 -2.14143,-0.50096 -3.23449,-0.51885 z m 31.82936,81.48911 c 20.50757,0.0254 37.12311,15.86487 37.1232,35.40227 -9e-5,19.53737 -16.61563,35.37952 -37.1232,35.40494 -20.50757,-0.0254 -37.12311,-15.86757 -37.1232,-35.40494 9e-5,-19.5374 16.61563,-35.37687 37.1232,-35.40227 z m -0.0864,9.50782 c -0.1134,0.004 -0.22661,0.0103 -0.33987,0.0161 l -0.046,0.003 c -14.19026,0.2109 -25.58561,11.78898 -25.59366,26.00408 8.5e-4,14.371 11.63217,26.02044 25.97962,26.02015 0.0288,-10e-4 0.0577,-0.004 0.0864,-0.006 0.0288,10e-4 0.0577,0.004 0.0864,0.006 14.34744,2.9e-4 25.97876,-11.64915 25.97962,-26.02015 -0.007,-14.2151 -11.40341,-25.79318 -25.59367,-26.00408 l -0.046,-0.003 c -0.11325,-0.006 -0.22654,-0.0118 -0.33987,-0.0161 -0.0287,9.3e-4 -0.0577,10e-4 -0.0864,0.003 -0.0288,-10e-4 -0.0577,-10e-4 -0.0864,-0.003 z"
       style="opacity:1;fill:#3284ff;fill-opacity:0.99215686;stroke:#4e3bf9;stroke-width:4;stroke-linecap:round;stroke-linejoin:round;stroke-miterlimit:4;stroke-dasharray:none;stroke-dashoffset:0.2;stroke-opacity:1" />
    <path
       id="path4281"
       d="m 307.65458,525.56765 c 8.57573,0.0927 16.74013,0.3264 25.19068,0.69448 -0.56703,3.38995 -0.72348,6.7388 -0.75761,9.15451 -2.24245,-3.87778 -7.46993,-5.16325 -11.86929,-5.36644 -4.35001,-0.20091 -9.61739,1.87971 -13.00571,4.04062 0.1934,-3.02737 0.38993,-5.40369 0.44193,-8.52317 z"
       style="opacity:1;fill:#4d3bf9;fill-opacity:1;stroke:#4e3bf9;stroke-width:4;stroke-linecap:round;stroke-linejoin:round;stroke-miterlimit:4;stroke-dasharray:none;stroke-dashoffset:0.2;stroke-opacity:1" />
    <path
       style="opacity:1;fill:#4d3bf9;fill-opacity:1;stroke:#4e3bf9;stroke-width:4;stroke-linecap:round;stroke-linejoin:round;stroke-miterlimit:4;stroke-dasharray:none;stroke-dashoffset:0.2;stroke-opacity:1"
       d="m 436.33189,525.56765 c -8.57573,0.0927 -16.74013,0.3264 -25.19068,0.69448 0.56703,3.38995 0.72348,6.7388 0.75761,9.15451 2.24245,-3.87778 7.46993,-5.16325 11.86929,-5.36644 4.35001,-0.20091 9.61739,1.87971 13.00571,4.04062 -0.1934,-3.02737 -0.38993,-5.40369 -0.44193,-8.52317 z"
       id="path4283" />
    <path
       id="path4285"
       d="m 324.76405,367.09997 22.09708,-0.63135"
       style="opacity:1;fill:#4d3bf9;fill-opacity:1;stroke:#4e3bf9;stroke-width:4;stroke-linecap:round;stroke-linejoin:round;stroke-miterlimit:4;stroke-dasharray:none;stroke-dashoffset:0.2;stroke-opacity:1" />
    <path
       style="opacity:1;fill:#4d3bf9;fill-opacity:1;stroke:#4e3bf9;stroke-width:4;stroke-linecap:round;stroke-linejoin:round;stroke-miterlimit:4;stroke-dasharray:none;stroke-dashoffset:0.2;stroke-opacity:1"
       d="m 422.74883,367.09996 -22.09708,-0.63135"
       id="path4291" />
  </g>
  <g
     transform="translate(-246.48982,-317.75402)"
     style="display:none"
     id="layer3">
    <path
       id="path4252"
       d="M 596.59253,542.94946 584.97577,365.41515"
       style="opacity:1;fill:#3284ff;fill-opacity:0.99215686;stroke:#4b37f5;stroke-width:1;stroke-linecap:round;stroke-miterlimit:4;stroke-dasharray:none;stroke-dashoffset:0.2;stroke-opacity:1" />
    <path
       id="path4254"
       d="m 597.0976,365.66769 18.18275,180.05969"
       style="opacity:1;fill:#3284ff;fill-opacity:0.99215686;stroke:#4b37f5;stroke-width:1;stroke-linecap:round;stroke-miterlimit:4;stroke-dasharray:none;stroke-dashoffset:0.2;stroke-opacity:1" />
  </g>
</svg>
